<svg width="130" height="36" viewBox="0 0 130 36" fill="none" xmlns="http://www.w3.org/2000/svg">
<path d="M1.20149 32.1926H11.5304V28.8982H4.96099V18.6273H1.20149V32.1926ZM13.2205 32.1926H16.9994V18.6273H13.2205V32.1926ZM22.7965 32.1926H26.556V21.9218H30.6256V18.6273H18.727V21.9218H22.7965V32.1926ZM35.5896 32.1926H39.3491V21.9218H43.4187V18.6273H31.5201V21.9218H35.5896V32.1926ZM45.0689 32.1926H55.3979V28.8982H48.8284V18.6273H45.0689V32.1926ZM57.0104 32.1926H68.0176V28.9951H60.7311V26.844H67.2424V23.879H60.7311V21.8249H67.9207V18.6273H57.0104V32.1926ZM69.936 32.1926H80.2649V28.8982H73.6955V18.6273H69.936V32.1926ZM81.955 32.1926H85.7338V18.6273H81.955V32.1926ZM95.1355 32.4639C97.5966 32.4639 99.5926 31.5531 101.027 30.371V24.2666H94.7866V27.0184H97.4609V28.6656C96.8989 29.0338 96.2013 29.2276 95.2905 29.2276C93.1394 29.2276 91.6085 27.6579 91.6085 25.4681C91.6085 23.3558 93.1201 21.7086 95.0773 21.7086C96.4145 21.7086 97.3834 22.1737 98.3524 22.9876L100.562 20.3327C99.1275 19.0924 97.4416 18.356 95.058 18.356C90.8527 18.356 87.7521 21.4567 87.7521 25.41C87.7521 29.557 90.9109 32.4639 95.1355 32.4639ZM103.111 32.1926H106.87V27.0378H111.696V32.1926H115.455V18.6273H111.696V23.7046H106.87V18.6273H103.111V32.1926ZM121.167 32.1926H124.927V21.9218H128.996V18.6273H117.097V21.9218H121.167V32.1926Z" fill="#2ED297"/>
<path fill-rule="evenodd" clip-rule="evenodd" d="M44.0779 12.3478C41.8728 7.12854 36.706 3.46584 30.6838 3.46584C24.6615 3.46584 19.4947 7.12854 17.2896 12.3478H13.8379C16.1989 5.30811 22.849 0.236023 30.6838 0.236023C38.5185 0.236023 45.1686 5.30811 47.5296 12.3478H44.0779Z" fill="#2ED297"/>
</svg>
